<?xml version="1.0" encoding="UTF-8" standalone="no"?>
<svg
   width="24"
   
   viewBox="0 0 24 20"
   fill="none"
   stroke="currentColor"
   stroke-width="2"
   stroke-linecap="round"
   stroke-linejoin="round"
   class="feather feather-camera"
   version="1.1"
   id="svg1"
   xmlns="http://www.w3.org/2000/svg"
   xmlns:svg="http://www.w3.org/2000/svg">
  <defs
     id="defs1" />
  <path
     id="path1"
     style="fill:#000000;fill-opacity:1"
     d="M 9,1 7,4 H 3 A 2,2 0 0 0 1,6 v 11 a 2,2 0 0 0 2,2 h 18 a 2,2 0 0 0 2,-2 V 6 A 2,2 0 0 0 21,4 H 17 L 15,1 Z m 3,5.5175781 A 4.864254,4.864254 0 0 1 16.863281,11.380859 4.864254,4.864254 0 0 1 12,16.246094 4.864254,4.864254 0 0 1 7.1367188,11.380859 4.864254,4.864254 0 0 1 12,6.5175781 Z" />
</svg>
