<?xml version="1.0" encoding="UTF-8" standalone="no"?>
<svg
   role="img"
   viewBox="0 0 17.700516 18.692253"
   width="17.700516"
   height="18.692253"
   version="1.1"
   id="svg1"
   xmlns="http://www.w3.org/2000/svg"
   xmlns:svg="http://www.w3.org/2000/svg">
  <defs
     id="defs1" />
  <title
     id="title1" />
  <path
     d="m 6.5843534,18.624926 c 4.3220636,0.246673 10.9591596,-0.136249 11.1161626,-1.957356 0,0 -0.444007,0.454869 -3.714054,1.003427 -3.688054,0.618019 -8.0971187,0.781168 -10.795158,0.384889 0,-8.91e-4 0.5530081,0.406966 3.3930494,0.56904"
     id="path8"
     style="stroke-width:0.943679" />
  <path
     d="m 11.251422,0 c 0,0 2.494036,1.7133224 -2.3650354,4.348569 -3.8960564,2.1138306 -0.888013,3.3194766 -10e-4,4.6961796 C 6.6113538,7.6343836 4.9423295,6.3943886 6.0613458,5.2395786 7.7053696,3.5434312 12.258436,2.7218058 11.251422,0"
     id="path7"
     style="stroke-width:0.828847" />
  <path
     d="m 13.966461,12.979051 c 4.503066,-2.083809 2.421035,-4.0865804 0.968014,-3.8158634 -0.355005,0.0659 -0.515007,0.122891 -0.515007,0.122891 0,0 0.132002,-0.184337 0.385005,-0.264483 2.875042,-0.900313 5.086074,2.6546294 -0.928013,4.0625364 0,-8.91e-4 0.07,-0.05521 0.09,-0.105081"
     id="path6"
     style="stroke-width:0.943679" />
  <path
     d="m 6.142347,9.0839316 c 0,0 -4.3620635,0.9225754 -1.5440225,1.2574094 1.1890173,0.141592 3.5610521,0.109534 5.7700845,-0.05521 1.806026,-0.135358 3.618053,-0.4247764 3.618053,-0.4247764 0,0 -0.63701,0.2422204 -1.098016,0.5227334 C 8.4593806,11.42154 -0.09774381,10.93888 2.366292,9.8782746 4.4483223,8.9824146 6.142347,9.0839336 6.142347,9.0839336"
     id="path5"
     style="stroke-width:0.943679" />
  <path
     d="m 16.180493,15.579359 c 0,0 0.474296,0.26081 -0.951724,0.645513 -2.71204,0.732005 -10.7559083,1.261871 -13.136943,0.339296 -0.8560124,-0.332163 0.1617187,-0.766156 0.9225692,-0.919912 0.5078984,-0.102639 0.8319184,-0.124561 0.8319184,-0.124561 -0.9530139,-0.597537 -6.1560896,1.17281 -2.6430385,1.680404 9.5801399,1.382972 17.4622549,-0.623361 14.9772179,-1.62074"
     id="path4"
     style="stroke-width:0.943679" />
  <path
     d="m 9.9664026,8.1220476 c 1.1580174,0.880167 -0.304004,1.672516 -0.304004,1.672516 0,0 2.9390424,-1.002322 1.5890234,-2.256874 -1.2610194,-1.170035 -2.2280334,-1.751091 3.007043,-3.7557338 0,-6.603e-4 -8.2161195,1.3542568 -4.2920624,4.3400918"
     id="path3"
     style="stroke-width:0.812589" />
  <path
     d="m 5.1263322,11.508808 c 0,0 -1.028015,0.677683 0.5420079,0.822837 2.0320295,0.186118 3.6360525,0.202148 6.4130939,-0.274279 0,0 0.384005,0.346411 0.987014,0.536091 -5.6790824,1.479148 -12.007175,0.115767 -7.9421158,-1.084649"
     id="path2"
     style="stroke-width:0.943679" />
  <path
     d="m 5.7013406,13.848195 c 0,0 -0.9170134,0.475536 0.6530095,0.635829 1.9020275,0.194132 2.8740415,0.166526 4.9690729,-0.187899 0,0 0.552008,0.308119 1.321019,0.575274 C 7.9453736,16.664008 2.0112869,14.766318 5.7013406,13.848195"
     id="path1"
     style="stroke-width:0.943679" />
</svg>
